<svg width="42" height="42" viewBox="0 0 42 42" fill="none" xmlns="http://www.w3.org/2000/svg">
<path fill-rule="evenodd" clip-rule="evenodd" d="M31.3163 34.5131C28.4554 36.7005 24.8794 38 21 38C11.6112 38 4 30.3888 4 21C4 17.1206 5.29947 13.5446 7.48687 10.6837L31.3163 34.5131ZM34.1881 31.7281L10.2719 7.81189C13.1979 5.42879 16.9321 4 21 4C30.3888 4 38 11.6112 38 21C38 25.0679 36.5712 28.8021 34.1881 31.7281ZM42 21C42 32.598 32.598 42 21 42C9.40202 42 0 32.598 0 21C0 9.40202 9.40202 0 21 0C32.598 0 42 9.40202 42 21Z" fill="#477BFF"/>
</svg>
