<svg width="30" height="30" viewBox="0 0 30 30" fill="none" xmlns="http://www.w3.org/2000/svg">
<path fill-rule="evenodd" clip-rule="evenodd" d="M15 30C23.2843 30 30 23.2843 30 15C30 6.71573 23.2843 0 15 0C6.71573 0 0 6.71573 0 15C0 23.2843 6.71573 30 15 30ZM11.4453 8.5547C10.8595 7.96891 9.90974 7.96891 9.32395 8.5547C8.73817 9.14048 8.73817 10.0902 9.32395 10.676L13.2633 14.6154L9.32395 18.5547C8.73817 19.1405 8.73817 20.0902 9.32395 20.676C9.90974 21.2618 10.8595 21.2618 11.4453 20.676L15.3846 16.7367L19.324 20.676C19.9097 21.2618 20.8595 21.2618 21.4453 20.676C22.0311 20.0902 22.0311 19.1405 21.4453 18.5547L17.5059 14.6154L21.4453 10.676C22.0311 10.0902 22.0311 9.14048 21.4453 8.5547C20.8595 7.96891 19.9097 7.96891 19.324 8.5547L15.3846 12.494L11.4453 8.5547Z" fill="#BEBEBE"/>
</svg>
